<svg id="Layer_1" data-name="Layer 1" xmlns="http://www.w3.org/2000/svg" viewBox="0 0 820.64 820.64"><defs><style>.cls-1{fill:#5a82f1;}.cls-2{fill:#fffffe;}</style></defs><circle class="cls-1" cx="410.32" cy="410.32" r="410.32"/><path class="cls-2" d="M347,740.23a152.24,152.24,0,0,1-39.92-36.37,220.84,220.84,0,0,1-28.63-49.32A299.72,299.72,0,0,1,255,540a286.82,286.82,0,0,1,6-57.27,300.87,300.87,0,0,1,17.45-56.64,223.81,223.81,0,0,1,28.63-49.74A150.7,150.7,0,0,1,347,339.77h60.2a200.7,200.7,0,0,0-41.28,39.4,250.86,250.86,0,0,0-30.52,49.53,274,274,0,0,0-18.91,55.08A252.33,252.33,0,0,0,310,540a258.92,258.92,0,0,0,11.39,76.29,253.4,253.4,0,0,0,33.13,69.08,228,228,0,0,0,52.67,54.86Z" transform="translate(-129.68 -129.68)"/><path class="cls-2" d="M533.63,692.16q-32.61,0-57.9-10.45a83.61,83.61,0,0,1-39.61-32.92q-14.31-22.47-13.69-58.21h56q.62,18,7.31,29.37a39,39,0,0,0,19.34,16.61q12.63,5.24,30.2,5.23,15.47,0,26.12-4.6t16.31-12.54a30,30,0,0,0,5.64-17.77q0-12.74-6.69-20.38t-20.59-13.69q-13.9-6-35.63-14A253.13,253.13,0,0,1,475,536.45q-20.17-12.75-31.77-30.73t-11.6-43.05q0-27.8,13.17-46.19t36.05-27.8q22.89-9.4,51.94-9.41,44.1,0,69.49,22.78t29.37,68.35h-55q-.84-13.17-6.48-22.15a38,38,0,0,0-15.36-13.9q-9.72-4.92-22.89-4.92-19.44,0-31.77,7.74t-12.33,24q0,11.71,4.81,20.07t17,15.57q12.24,7.21,34.18,16,18.39,7.32,35.84,14.42a169.17,169.17,0,0,1,31,16.3,70.8,70.8,0,0,1,21.84,23.52q8.25,14.31,8.26,36.47.2,28.22-13.69,48.07T589,681.81Q564.77,692.16,533.63,692.16Z" transform="translate(-129.68 -129.68)"/><path class="cls-2" d="M672.82,740.23a228,228,0,0,0,52.67-54.86,251.68,251.68,0,0,0,33-69.08A261.48,261.48,0,0,0,769.8,540a252.33,252.33,0,0,0-6.48-56.22,274,274,0,0,0-18.91-55.08,248.05,248.05,0,0,0-30.62-49.53,208.41,208.41,0,0,0-41-39.4H733a154.85,154.85,0,0,1,39.6,36.58,224.52,224.52,0,0,1,28.85,49.74A296.82,296.82,0,0,1,819,482.73,286.82,286.82,0,0,1,825,540a297.37,297.37,0,0,1-23.51,114.54,221.54,221.54,0,0,1-28.85,49.32A156.49,156.49,0,0,1,733,740.23Z" transform="translate(-129.68 -129.68)"/></svg>