<svg id="Layer_1" data-name="Layer 1" xmlns="http://www.w3.org/2000/svg" viewBox="0 0 1631.93 600.23"><defs><style>.cls-1{fill:#a09f9f;}.cls-2{fill:#262929;}.cls-3{fill:none;}.cls-4{fill:#281d1b;}.cls-5{fill:#6d6e71;}.cls-16,.cls-6{fill:#fff;}.cls-7{fill:#bcbec0;}.cls-8{fill:#597789;opacity:0.1;}.cls-9{fill:#ffd100;}.cls-10{fill:#4e7add;}.cls-11{fill:#7199f4;}.cls-12{fill:#97b5f2;}.cls-13{fill:#5a82f1;}.cls-14{fill:#f1f2f2;opacity:0.8;}.cls-15{fill:#d1d3d4;}.cls-16{opacity:0.4;}</style></defs><path class="cls-1" d="M594.28,786.2c1-23.61,11.86-41.74,24.33-40.54a13.86,13.86,0,0,1,5.85,2.2c-4.35-7-9.84-11.63-16-12.21-15.12-1.48-28.31,20.52-29.45,49.07s10.11,52.88,25.23,54.35c6.21.63,12-2.91,16.87-9a12.09,12.09,0,0,1-5.93,1.05C602.65,829.9,593.31,809.8,594.28,786.2Z" transform="translate(-144.03 -239.88)"/><path class="cls-1" d="M639.5,790.58c.8-19.71-5.65-36.8-15-42.72,6.18,10.09,9.88,25.33,9.19,42.15s-5.6,31.21-12.57,40C630.89,826.05,638.67,810.29,639.5,790.58Z" transform="translate(-144.03 -239.88)"/><path class="cls-2" d="M594.28,786.2c1-23.61,11.86-41.74,24.33-40.54,5.68.53,10.67,5.14,14.35,12.08-4.54-12.35-11.8-20.85-20.49-21.72-15.1-1.46-28.29,20.51-29.46,49.09-1,25.18,7.47,46.1,19.93,51.89,1.69.77,10.66,2,10.66,2l1.24-.36a111.94,111.94,0,0,0,7-8.92,12.61,12.61,0,0,1-6.73,1.41C602.65,829.9,593.31,809.8,594.28,786.2Z" transform="translate(-144.03 -239.88)"/><path class="cls-2" d="M639.5,790.58c.52-12.87-2.09-24.54-6.54-32.84a85.8,85.8,0,0,1,4.75,32.69c-.6,15.12-9.34,30.07-15.83,39.25C631.32,825.15,638.7,809.76,639.5,790.58Z" transform="translate(-144.03 -239.88)"/><path class="cls-3" d="M639.5,790.58c-1,23.6-11.87,41.75-24.35,40.51s-21.84-21.29-20.87-44.89,11.86-41.74,24.33-40.54S640.46,767,639.5,790.58Z" transform="translate(-144.03 -239.88)"/><path class="cls-3" d="M643.25,790.94c-1.17,28.57-14.36,50.53-29.45,49.06s-26.44-25.82-25.29-54.38,14.38-50.52,29.5-49S644.42,762.4,643.25,790.94Z" transform="translate(-144.03 -239.88)"/><path class="cls-3" d="M637.71,790.43c-1,24.28-22.87,48.17-22.87,48.17l-1,1.4s-9-1.21-10.66-2C590.67,832.25,582,810.29,583,785.11c1.17-28.58,14.36-50.55,29.46-49.09S638.88,761.86,637.71,790.43Z" transform="translate(-144.03 -239.88)"/><path class="cls-4" d="M639.82,789.2c-1,24.63-12.63,43.52-26,42.24s-23.31-22.3-22.36-46.91,12.64-43.53,26-42.22S640.81,764.61,639.82,789.2Z" transform="translate(-144.03 -239.88)"/><path class="cls-1" d="M618.52,736.64c-15.4-1.51-28.82,20.42-30,49s10.37,52.91,25.78,54.42,28.81-20.46,29.94-49S633.86,738.13,618.52,736.64Zm-3.37,94.45c-12.5-1.19-21.84-21.29-20.87-44.89s11.86-41.74,24.33-40.54S640.46,767,639.5,790.58,627.63,832.33,615.15,831.09Z" transform="translate(-144.03 -239.88)"/><path class="cls-1" d="M713.92,765.81c.94-23.6,11.86-41.75,24.33-40.53a13.94,13.94,0,0,1,5.84,2.19c-4.34-7-9.83-11.62-16-12.21-15.12-1.47-28.31,20.53-29.45,49.06s10.11,52.89,25.23,54.36c6.21.63,12-2.9,16.87-9a12.09,12.09,0,0,1-5.93,1.05C722.29,809.51,713,789.42,713.92,765.81Z" transform="translate(-144.03 -239.88)"/><path class="cls-1" d="M759.14,770.2c.8-19.71-5.66-36.81-15-42.73,6.19,10.1,9.89,25.34,9.2,42.16s-5.59,31.21-12.57,40C750.53,805.65,758.31,789.91,759.14,770.2Z" transform="translate(-144.03 -239.88)"/><path class="cls-2" d="M713.92,765.81c.94-23.6,11.86-41.75,24.33-40.53,5.68.52,10.66,5.14,14.35,12.07-4.54-12.34-11.82-20.84-20.49-21.71-15.1-1.47-28.29,20.51-29.48,49.09-1,25.18,7.49,46.1,20,51.89,1.69.77,10.65,2,10.65,2l1.24-.36a111.93,111.93,0,0,0,7-8.93,12.71,12.71,0,0,1-6.73,1.42C722.29,809.51,713,789.42,713.92,765.81Z" transform="translate(-144.03 -239.88)"/><path class="cls-2" d="M759.14,770.2c.52-12.88-2.09-24.54-6.54-32.85A86,86,0,0,1,757.36,770c-.63,15.12-9.35,30.08-15.84,39.25C751,804.77,758.34,789.37,759.14,770.2Z" transform="translate(-144.03 -239.88)"/><path class="cls-3" d="M759.14,770.2c-1,23.6-11.88,41.75-24.35,40.51s-21.84-21.29-20.87-44.9,11.86-41.75,24.33-40.53S760.09,746.6,759.14,770.2Z" transform="translate(-144.03 -239.88)"/><path class="cls-3" d="M762.88,770.56c-1.16,28.57-14.35,50.52-29.45,49S707,793.8,708.15,765.24s14.38-50.52,29.5-49S764.06,742,762.88,770.56Z" transform="translate(-144.03 -239.88)"/><path class="cls-3" d="M757.36,770c-1,24.29-22.89,48.18-22.89,48.18l-1,1.38s-9-1.2-10.66-2c-12.47-5.79-21.17-27.74-20.14-52.92,1.19-28.58,14.38-50.56,29.48-49.09S758.52,741.48,757.36,770Z" transform="translate(-144.03 -239.88)"/><path class="cls-4" d="M759.46,768.82c-1,24.63-12.64,43.52-26,42.24s-23.32-22.3-22.36-46.92,12.63-43.53,26-42.22S760.45,744.23,759.46,768.82Z" transform="translate(-144.03 -239.88)"/><path class="cls-1" d="M738.15,716.26c-15.39-1.51-28.81,20.42-30,49s10.36,52.91,25.78,54.42,28.81-20.46,29.94-49S753.5,717.75,738.15,716.26Zm-3.36,94.45c-12.5-1.2-21.84-21.29-20.87-44.9s11.86-41.75,24.33-40.53,21.84,21.32,20.89,44.92S747.26,812,734.79,810.71Z" transform="translate(-144.03 -239.88)"/><path class="cls-1" d="M993.75,718.45c.81-23.59,10-41.74,20.45-40.54a10.59,10.59,0,0,1,4.9,2.19c-3.64-7-8.24-11.61-13.44-12.2-12.7-1.48-23.78,20.53-24.74,49.08s8.46,52.87,21.16,54.34c5.21.62,10.09-2.91,14.17-9a8.76,8.76,0,0,1-5,1.05C1000.77,762.15,992.93,742.06,993.75,718.45Z" transform="translate(-144.03 -239.88)"/><path class="cls-1" d="M1031.73,722.82c.68-19.7-4.73-36.8-12.63-42.72,5.2,10.1,8.29,25.33,7.7,42.15s-4.69,31.21-10.55,40C1024.49,758.29,1031,742.53,1031.73,722.82Z" transform="translate(-144.03 -239.88)"/><path class="cls-2" d="M993.75,718.45c.81-23.59,10-41.74,20.45-40.54,4.76.52,9,5.13,12,12.07-3.82-12.33-9.91-20.84-17.2-21.7-12.68-1.46-23.77,20.51-24.76,49.1-.88,25.18,6.25,46.09,16.71,51.87,1.42.77,9,2,9,2l1-.35s2.6-3.44,5.9-8.92a9.22,9.22,0,0,1-5.64,1.4C1000.77,762.15,992.93,742.06,993.75,718.45Z" transform="translate(-144.03 -239.88)"/><path class="cls-2" d="M1031.73,722.82c.43-12.88-1.76-24.54-5.48-32.84a101,101,0,0,1,4,32.69c-.51,15.12-7.84,30.08-13.3,39.27C1024.84,757.4,1031,742,1031.73,722.82Z" transform="translate(-144.03 -239.88)"/><path class="cls-3" d="M1031.73,722.82c-.87,23.61-10,41.75-20.46,40.52s-18.34-21.28-17.52-44.89,10-41.74,20.45-40.54S1032.53,699.22,1031.73,722.82Z" transform="translate(-144.03 -239.88)"/><path class="cls-3" d="M1034.87,723.19c-1,28.56-12.07,50.53-24.75,49.06s-22.18-25.8-21.2-54.37,12.08-50.53,24.78-49.06S1035.87,694.65,1034.87,723.19Z" transform="translate(-144.03 -239.88)"/><path class="cls-3" d="M1030.21,722.67c-.8,24.3-19.2,48.19-19.2,48.19l-.89,1.39s-7.57-1.2-9-2c-10.47-5.79-17.76-27.73-16.88-52.91,1-28.59,12.08-50.56,24.76-49.1S1031.21,694.1,1030.21,722.67Z" transform="translate(-144.03 -239.88)"/><path class="cls-4" d="M1032,721.46c-.84,24.61-10.62,43.51-21.83,42.24s-19.56-22.3-18.75-46.91,10.62-43.54,21.83-42.24S1032.84,696.85,1032,721.46Z" transform="translate(-144.03 -239.88)"/><path class="cls-1" d="M1014.12,668.89c-12.92-1.5-24.2,20.43-25.2,49s8.68,52.91,21.62,54.41,24.2-20.47,25.15-49S1027,670.37,1014.12,668.89Zm-2.85,94.45c-10.5-1.19-18.34-21.28-17.52-44.89s10-41.74,20.45-40.54,18.33,21.31,17.53,44.91S1021.74,764.57,1011.27,763.34Z" transform="translate(-144.03 -239.88)"/><path class="cls-1" d="M1072.47,706.53c.79-23.61,10-41.76,20.43-40.56a10.58,10.58,0,0,1,4.91,2.2c-3.65-7-8.25-11.62-13.45-12.2-12.7-1.48-23.78,20.53-24.74,49.07s8.46,52.88,21.16,54.35c5.21.62,10.09-2.91,14.16-9a8.72,8.72,0,0,1-5,1.06C1079.47,750.21,1071.63,730.12,1072.47,706.53Z" transform="translate(-144.03 -239.88)"/><path class="cls-1" d="M1110.43,710.89c.68-19.7-4.74-36.8-12.62-42.72,5.19,10.09,8.28,25.33,7.7,42.15s-4.71,31.21-10.57,40C1103.19,746.35,1109.72,730.6,1110.43,710.89Z" transform="translate(-144.03 -239.88)"/><path class="cls-2" d="M1072.47,706.53c.79-23.61,10-41.76,20.43-40.56,4.77.53,8.95,5.14,12,12.07-3.81-12.33-9.92-20.84-17.2-21.69-12.67-1.47-23.76,20.51-24.77,49.09-.87,25.18,6.26,46.1,16.73,51.88,1.42.77,9,2,9,2l1-.35s2.6-3.45,5.92-8.94a9.23,9.23,0,0,1-5.66,1.42C1079.47,750.21,1071.63,730.12,1072.47,706.53Z" transform="translate(-144.03 -239.88)"/><path class="cls-2" d="M1110.43,710.89c.43-12.88-1.76-24.55-5.48-32.85a101,101,0,0,1,4,32.69c-.52,15.13-7.86,30.08-13.3,39.26C1103.55,745.46,1109.74,730.06,1110.43,710.89Z" transform="translate(-144.03 -239.88)"/><path class="cls-3" d="M1110.43,710.89c-.86,23.6-10,41.75-20.47,40.52s-18.33-21.29-17.49-44.88,10-41.76,20.43-40.56S1111.24,687.29,1110.43,710.89Z" transform="translate(-144.03 -239.88)"/><path class="cls-3" d="M1113.57,711.25c-1,28.56-12.08,50.52-24.75,49.06s-22.18-25.81-21.2-54.37,12.08-50.51,24.78-49.06S1114.57,682.71,1113.57,711.25Z" transform="translate(-144.03 -239.88)"/><path class="cls-3" d="M1108.92,710.73c-.82,24.29-19.22,48.2-19.22,48.2l-.88,1.38s-7.57-1.2-9-2c-10.46-5.78-17.76-27.73-16.89-52.91,1-28.58,12.1-50.56,24.77-49.09S1109.91,682.16,1108.92,710.73Z" transform="translate(-144.03 -239.88)"/><path class="cls-4" d="M1110.69,709.51c-.85,24.63-10.62,43.52-21.83,42.25s-19.57-22.29-18.75-46.92,10.62-43.53,21.83-42.21S1111.54,684.92,1110.69,709.51Z" transform="translate(-144.03 -239.88)"/><path class="cls-1" d="M1092.82,657c-12.92-1.5-24.2,20.43-25.2,49s8.67,52.92,21.62,54.42,24.19-20.47,25.14-49S1105.71,658.44,1092.82,657ZM1090,751.41c-10.49-1.2-18.33-21.29-17.49-44.88s10-41.76,20.43-40.56,18.34,21.32,17.53,44.92S1100.44,752.64,1090,751.41Z" transform="translate(-144.03 -239.88)"/><path class="cls-1" d="M863,709.46c.79-23.6,10-41.75,20.43-40.55a10.63,10.63,0,0,1,4.91,2.2c-3.65-7-8.25-11.63-13.45-12.21-12.7-1.47-23.77,20.53-24.74,49.08s8.46,52.88,21.15,54.34c5.22.62,10.1-2.91,14.17-9a8.63,8.63,0,0,1-5,1.07C870,753.15,862.2,733.05,863,709.46Z" transform="translate(-144.03 -239.88)"/><path class="cls-1" d="M901,713.82c.68-19.69-4.74-36.79-12.62-42.71,5.19,10.09,8.28,25.33,7.71,42.14s-4.71,31.22-10.58,40C893.75,749.29,900.29,733.54,901,713.82Z" transform="translate(-144.03 -239.88)"/><path class="cls-2" d="M863,709.46c.79-23.6,10-41.75,20.43-40.55,4.77.53,9,5.13,12,12.07-3.81-12.33-9.92-20.84-17.19-21.69-12.68-1.47-23.76,20.5-24.77,49.09-.88,25.18,6.26,46.1,16.72,51.88,1.42.76,9,2,9,2l1-.35s2.61-3.45,5.92-8.94a9.29,9.29,0,0,1-5.65,1.42C870,753.15,862.2,733.05,863,709.46Z" transform="translate(-144.03 -239.88)"/><path class="cls-2" d="M901,713.82c.43-12.87-1.75-24.54-5.48-32.84a101,101,0,0,1,4,32.69c-.51,15.12-7.85,30.08-13.3,39.26C894.11,748.4,900.3,733,901,713.82Z" transform="translate(-144.03 -239.88)"/><path class="cls-3" d="M901,713.82c-.86,23.6-10,41.76-20.46,40.53s-18.33-21.3-17.5-44.89,10-41.75,20.43-40.55S901.8,690.23,901,713.82Z" transform="translate(-144.03 -239.88)"/><path class="cls-3" d="M904.13,714.19c-1,28.57-12.06,50.52-24.74,49.06s-22.18-25.81-21.21-54.37,12.09-50.52,24.78-49.06S905.13,685.65,904.13,714.19Z" transform="translate(-144.03 -239.88)"/><path class="cls-3" d="M899.48,713.67c-.82,24.29-19.22,48.2-19.22,48.2l-.87,1.38s-7.57-1.21-9-2c-10.46-5.78-17.76-27.73-16.88-52.91,1-28.59,12.09-50.56,24.77-49.09S900.47,685.1,899.48,713.67Z" transform="translate(-144.03 -239.88)"/><path class="cls-4" d="M901.26,712.45c-.86,24.63-10.63,43.52-21.84,42.25s-19.57-22.29-18.74-46.91,10.63-43.54,21.82-42.22S902.1,687.86,901.26,712.45Z" transform="translate(-144.03 -239.88)"/><path class="cls-1" d="M883.38,659.89c-12.92-1.49-24.2,20.43-25.2,49s8.67,52.92,21.63,54.41,24.19-20.46,25.15-49S896.27,661.38,883.38,659.89Zm-2.85,94.46c-10.5-1.2-18.33-21.3-17.5-44.89s10-41.75,20.43-40.55S901.8,690.23,901,713.82,891,755.58,880.53,754.35Z" transform="translate(-144.03 -239.88)"/><path class="cls-1" d="M941.76,699.18c.8-23.6,10-41.75,20.44-40.55a10.71,10.71,0,0,1,4.9,2.2c-3.64-7-8.25-11.62-13.45-12.21-12.7-1.47-23.77,20.54-24.74,49.08s8.46,52.87,21.15,54.34c5.23.63,10.11-2.9,14.18-9a8.67,8.67,0,0,1-5,1.06C948.76,742.87,940.93,722.78,941.76,699.18Z" transform="translate(-144.03 -239.88)"/><path class="cls-1" d="M979.73,703.54c.67-19.69-4.74-36.79-12.63-42.71,5.19,10.09,8.29,25.33,7.7,42.14s-4.69,31.22-10.56,40C972.48,739,979,723.26,979.73,703.54Z" transform="translate(-144.03 -239.88)"/><path class="cls-2" d="M941.76,699.18c.8-23.6,10-41.75,20.44-40.55,4.76.52,9,5.13,12,12.07-3.81-12.33-9.91-20.83-17.19-21.7-12.69-1.46-23.76,20.51-24.77,49.1-.88,25.18,6.26,46.09,16.72,51.88,1.42.77,8.94,2,8.94,2l1.06-.36s2.61-3.43,5.91-8.92a9.26,9.26,0,0,1-5.65,1.41C948.76,742.87,940.93,722.78,941.76,699.18Z" transform="translate(-144.03 -239.88)"/><path class="cls-2" d="M979.73,703.54c.42-12.87-1.76-24.54-5.49-32.84a101.25,101.25,0,0,1,4,32.69c-.51,15.13-7.84,30.08-13.3,39.27C972.83,738.12,979,722.72,979.73,703.54Z" transform="translate(-144.03 -239.88)"/><path class="cls-3" d="M979.73,703.54c-.86,23.61-10,41.77-20.47,40.53s-18.33-21.29-17.5-44.89,10-41.75,20.44-40.55S980.53,680,979.73,703.54Z" transform="translate(-144.03 -239.88)"/><path class="cls-3" d="M982.87,703.91c-1,28.56-12.07,50.53-24.76,49.06s-22.18-25.8-21.2-54.36S949,648.08,961.7,649.54,983.86,675.37,982.87,703.91Z" transform="translate(-144.03 -239.88)"/><path class="cls-3" d="M978.21,703.39C977.4,727.68,959,751.58,959,751.58l-.89,1.39s-7.56-1.2-8.94-2c-10.48-5.79-17.77-27.73-16.89-52.91,1-28.59,12.08-50.56,24.77-49.1S979.21,674.83,978.21,703.39Z" transform="translate(-144.03 -239.88)"/><path class="cls-4" d="M980,702.18c-.86,24.62-10.62,43.51-21.83,42.25s-19.57-22.31-18.75-46.92S950,654,961.23,655.29,980.84,677.58,980,702.18Z" transform="translate(-144.03 -239.88)"/><path class="cls-1" d="M962.13,649.61c-12.94-1.5-24.21,20.43-25.22,49s8.69,52.91,21.63,54.41,24.19-20.47,25.15-49S975,651.09,962.13,649.61Zm-2.87,94.46c-10.5-1.2-18.33-21.29-17.5-44.89s10-41.75,20.44-40.55,18.33,21.32,17.53,44.91S969.72,745.31,959.26,744.07Z" transform="translate(-144.03 -239.88)"/><path class="cls-1" d="M1202.23,699.68c.62-18.56,7.85-32.85,16.09-31.9a8.46,8.46,0,0,1,3.86,1.73c-2.89-5.49-6.49-9.15-10.6-9.61-10-1.15-18.7,16.17-19.45,38.62s6.64,41.61,16.64,42.76c4.1.5,7.94-2.29,11.14-7.11a6.72,6.72,0,0,1-3.91.83C1207.74,734.06,1201.57,718.25,1202.23,699.68Z" transform="translate(-144.03 -239.88)"/><path class="cls-1" d="M1232.1,703.12c.53-15.51-3.73-29-9.92-33.61,4.08,7.94,6.5,19.92,6,33.16s-3.7,24.56-8.32,31.5C1226.4,731,1231.55,718.63,1232.1,703.12Z" transform="translate(-144.03 -239.88)"/><path class="cls-2" d="M1202.23,699.68c.62-18.56,7.85-32.85,16.09-31.9,3.74.42,7,4,9.47,9.5-3-9.7-7.8-16.4-13.53-17.07-10-1.16-18.71,16.13-19.49,38.63-.69,19.8,4.92,36.27,13.16,40.81,1.12.61,7,1.55,7,1.55l.81-.28s2.06-2.71,4.67-7A7.18,7.18,0,0,1,1216,735C1207.74,734.06,1201.57,718.25,1202.23,699.68Z" transform="translate(-144.03 -239.88)"/><path class="cls-2" d="M1232.1,703.12c.34-10.13-1.38-19.31-4.31-25.84a79.82,79.82,0,0,1,3.13,25.72c-.42,11.9-6.19,23.67-10.47,30.89C1226.68,730.32,1231.56,718.21,1232.1,703.12Z" transform="translate(-144.03 -239.88)"/><path class="cls-3" d="M1232.1,703.12c-.67,18.57-7.86,32.86-16.1,31.88s-14.43-16.75-13.77-35.32,7.85-32.85,16.09-31.9S1232.73,684.55,1232.1,703.12Z" transform="translate(-144.03 -239.88)"/><path class="cls-3" d="M1234.57,703.41c-.78,22.47-9.49,39.75-19.47,38.61s-17.45-20.32-16.69-42.79,9.51-39.76,19.5-38.6S1235.36,681,1234.57,703.41Z" transform="translate(-144.03 -239.88)"/><path class="cls-3" d="M1230.92,703c-.65,19.11-15.14,37.92-15.14,37.92l-.68,1.1s-6-.95-7-1.55c-8.24-4.55-14-21.83-13.29-41.63.78-22.5,9.51-39.79,19.49-38.63S1231.7,680.52,1230.92,703Z" transform="translate(-144.03 -239.88)"/><path class="cls-4" d="M1232.31,702c-.67,19.37-8.36,34.24-17.18,33.24s-15.39-17.54-14.75-36.91,8.36-34.26,17.17-33.22S1233,682.69,1232.31,702Z" transform="translate(-144.03 -239.88)"/><path class="cls-1" d="M1218.24,660.68c-10.16-1.18-19,16.07-19.83,38.55s6.84,41.64,17,42.82,19-16.11,19.79-38.55S1228.39,661.85,1218.24,660.68ZM1216,735c-8.26-.94-14.43-16.75-13.77-35.32s7.85-32.85,16.09-31.9,14.41,16.77,13.78,35.34S1224.24,736,1216,735Z" transform="translate(-144.03 -239.88)"/><path class="cls-1" d="M1252.81,693.65c.59-17.72,7.49-31.35,15.34-30.43a7.81,7.81,0,0,1,3.68,1.64c-2.73-5.24-6.19-8.72-10.09-9.16-9.52-1.11-17.84,15.41-18.57,36.83s6.35,39.7,15.88,40.8c3.92.47,7.58-2.18,10.64-6.78a6.45,6.45,0,0,1-3.73.79C1258.07,726.45,1252.19,711.35,1252.81,693.65Z" transform="translate(-144.03 -239.88)"/><path class="cls-1" d="M1281.31,696.92c.51-14.79-3.54-27.61-9.48-32.06,3.9,7.57,6.23,19,5.8,31.63s-3.54,23.43-7.94,30.06C1275.88,723.55,1280.79,711.73,1281.31,696.92Z" transform="translate(-144.03 -239.88)"/><path class="cls-2" d="M1252.81,693.65c.59-17.72,7.49-31.35,15.34-30.43,3.58.38,6.73,3.85,9,9-2.85-9.25-7.44-15.64-12.89-16.28-9.52-1.11-17.85,15.39-18.59,36.84-.67,18.91,4.68,34.61,12.55,38.94,1.06.59,6.71,1.48,6.71,1.48l.78-.27a77.38,77.38,0,0,0,4.44-6.7,6.89,6.89,0,0,1-4.23,1.06C1258.07,726.45,1252.19,711.35,1252.81,693.65Z" transform="translate(-144.03 -239.88)"/><path class="cls-2" d="M1281.31,696.92c.32-9.66-1.31-18.41-4.12-24.65a75.67,75.67,0,0,1,3,24.53c-.39,11.37-5.88,22.59-10,29.48C1276.14,722.88,1280.79,711.32,1281.31,696.92Z" transform="translate(-144.03 -239.88)"/><path class="cls-3" d="M1281.31,696.92c-.64,17.72-7.5,31.35-15.35,30.42s-13.77-16-13.15-33.69,7.49-31.35,15.34-30.43S1281.92,679.21,1281.31,696.92Z" transform="translate(-144.03 -239.88)"/><path class="cls-3" d="M1283.66,697.2c-.75,21.44-9.05,37.93-18.56,36.83s-16.66-19.38-15.92-40.81,9.07-37.93,18.61-36.83S1284.42,675.78,1283.66,697.2Z" transform="translate(-144.03 -239.88)"/><path class="cls-3" d="M1280.18,696.8c-.62,18.24-14.43,36.18-14.43,36.18l-.65,1s-5.69-.91-6.72-1.48c-7.87-4.33-13.34-20.81-12.67-39.72.74-21.45,9.07-38,18.59-36.84S1280.93,675.37,1280.18,696.8Z" transform="translate(-144.03 -239.88)"/><path class="cls-4" d="M1281.5,695.9c-.63,18.48-8,32.67-16.39,31.71s-14.67-16.73-14.06-35.22,8-32.68,16.38-31.69S1282.15,677.44,1281.5,695.9Z" transform="translate(-144.03 -239.88)"/><path class="cls-1" d="M1268.09,656.44c-9.7-1.12-18.16,15.32-18.91,36.78s6.51,39.71,16.23,40.84,18.16-15.36,18.87-36.77S1277.77,657.56,1268.09,656.44Zm-2.13,70.9c-7.89-.89-13.77-16-13.15-33.69s7.49-31.35,15.34-30.43,13.77,16,13.16,33.7S1273.81,728.27,1266,727.34Z" transform="translate(-144.03 -239.88)"/><path class="cls-1" d="M1389.23,678c.56-16.73,7.08-29.61,14.5-28.76a7.33,7.33,0,0,1,3.47,1.55c-2.57-4.94-5.85-8.25-9.54-8.65-9-1-16.86,14.57-17.55,34.81s6,37.51,15,38.55c3.7.45,7.16-2.06,10-6.41a6.2,6.2,0,0,1-3.54.75C1394.21,709,1388.64,694.77,1389.23,678Z" transform="translate(-144.03 -239.88)"/><path class="cls-1" d="M1416.17,681.12c.47-14-3.37-26.1-9-30.3,3.69,7.17,5.89,18,5.48,29.9s-3.34,22.14-7.5,28.4C1411,706.29,1415.66,695.11,1416.17,681.12Z" transform="translate(-144.03 -239.88)"/><path class="cls-2" d="M1389.23,678c.56-16.73,7.08-29.61,14.5-28.76,3.38.37,6.36,3.63,8.55,8.56-2.72-8.75-7-14.79-12.21-15.39-9-1-16.85,14.55-17.56,34.82-.63,17.87,4.43,32.71,11.87,36.8,1,.55,6.33,1.4,6.33,1.4l.75-.25s1.85-2.44,4.2-6.34a6.52,6.52,0,0,1-4,1C1394.21,709,1388.64,694.77,1389.23,678Z" transform="translate(-144.03 -239.88)"/><path class="cls-2" d="M1416.17,681.12c.3-9.12-1.25-17.4-3.89-23.29A72.23,72.23,0,0,1,1415.1,681c-.38,10.73-5.57,21.34-9.44,27.85C1411.28,705.66,1415.67,694.74,1416.17,681.12Z" transform="translate(-144.03 -239.88)"/><path class="cls-3" d="M1416.17,681.12c-.61,16.76-7.08,29.63-14.53,28.75s-13-15.1-12.41-31.84,7.08-29.61,14.5-28.76S1416.74,664.39,1416.17,681.12Z" transform="translate(-144.03 -239.88)"/><path class="cls-3" d="M1418.39,681.38c-.71,20.28-8.56,35.85-17.55,34.82s-15.74-18.31-15-38.58,8.57-35.84,17.59-34.79S1419.1,661.14,1418.39,681.38Z" transform="translate(-144.03 -239.88)"/><path class="cls-3" d="M1415.1,681c-.59,17.23-13.64,34.19-13.64,34.19l-.62,1s-5.37-.86-6.35-1.4c-7.43-4.1-12.61-19.67-12-37.54.71-20.27,8.57-35.86,17.56-34.82S1415.8,660.75,1415.1,681Z" transform="translate(-144.03 -239.88)"/><path class="cls-4" d="M1416.36,680.16c-.61,17.46-7.55,30.87-15.5,30s-13.88-15.81-13.3-33.28,7.53-30.89,15.49-30S1417,662.71,1416.36,680.16Z" transform="translate(-144.03 -239.88)"/><path class="cls-1" d="M1403.68,642.87c-9.18-1.07-17.17,14.49-17.88,34.75s6.16,37.55,15.33,38.6,17.17-14.52,17.85-34.75S1412.82,643.92,1403.68,642.87Zm-2,67c-7.43-.85-13-15.1-12.41-31.84s7.08-29.61,14.5-28.76,13,15.12,12.44,31.85S1409.09,710.75,1401.64,709.87Z" transform="translate(-144.03 -239.88)"/><path class="cls-1" d="M1428.43,677.16c.49-14.8,6.24-26.19,12.82-25.42a6.59,6.59,0,0,1,3.08,1.37c-2.3-4.37-5.19-7.29-8.45-7.66-8-.92-14.9,12.88-15.5,30.79s5.29,33.16,13.26,34.08c3.27.39,6.33-1.82,8.89-5.67a5.44,5.44,0,0,1-3.13.66C1432.83,704.56,1427.91,692,1428.43,677.16Z" transform="translate(-144.03 -239.88)"/><path class="cls-1" d="M1452.24,679.9c.42-12.36-3-23.08-7.91-26.79,3.24,6.33,5.19,15.89,4.83,26.43s-3,19.58-6.63,25.11C1447.7,702.15,1451.8,692.27,1452.24,679.9Z" transform="translate(-144.03 -239.88)"/><path class="cls-2" d="M1428.43,677.16c.49-14.8,6.24-26.19,12.82-25.42,3,.31,5.62,3.21,7.55,7.56-2.39-7.72-6.22-13.06-10.79-13.61-8-.91-14.9,12.87-15.52,30.8-.56,15.79,3.92,28.91,10.48,32.53a39.22,39.22,0,0,0,5.61,1.23l.66-.22s1.63-2.16,3.71-5.6a5.75,5.75,0,0,1-3.55.88C1432.83,704.56,1427.91,692,1428.43,677.16Z" transform="translate(-144.03 -239.88)"/><path class="cls-2" d="M1452.24,679.9c.27-8.08-1.1-15.39-3.44-20.6a63.39,63.39,0,0,1,2.5,20.5c-.33,9.49-4.94,18.87-8.35,24.63C1447.92,701.58,1451.8,691.93,1452.24,679.9Z" transform="translate(-144.03 -239.88)"/><path class="cls-3" d="M1452.24,679.9c-.54,14.81-6.27,26.18-12.84,25.41s-11.49-13.35-11-28.15,6.24-26.19,12.82-25.42S1452.73,665.1,1452.24,679.9Z" transform="translate(-144.03 -239.88)"/><path class="cls-3" d="M1454.2,680.14c-.61,17.91-7.56,31.67-15.51,30.77s-13.91-16.2-13.31-34.1,7.59-31.69,15.56-30.78S1454.82,662.23,1454.2,680.14Z" transform="translate(-144.03 -239.88)"/><path class="cls-3" d="M1451.3,679.8c-.52,15.24-12.06,30.23-12.06,30.23l-.55.88a37.29,37.29,0,0,1-5.61-1.25c-6.57-3.62-11.15-17.38-10.59-33.17.62-17.93,7.56-31.71,15.52-30.8S1451.92,661.89,1451.3,679.8Z" transform="translate(-144.03 -239.88)"/><path class="cls-4" d="M1452.4,679.05c-.54,15.44-6.67,27.28-13.69,26.49s-12.27-14-11.75-29.42,6.65-27.32,13.69-26.48S1452.94,663.62,1452.4,679.05Z" transform="translate(-144.03 -239.88)"/><path class="cls-1" d="M1441.2,646.07c-8.11-.94-15.19,12.81-15.82,30.74s5.45,33.18,13.57,34.12,15.17-12.84,15.77-30.72S1449.28,647,1441.2,646.07Zm-1.8,59.24c-6.57-.75-11.49-13.35-11-28.15s6.24-26.19,12.82-25.42,11.48,13.36,11,28.16S1446,706.08,1439.4,705.31Z" transform="translate(-144.03 -239.88)"/><path class="cls-1" d="M1499.14,672c.47-13.88,5.87-24.56,12-23.85a6.27,6.27,0,0,1,2.88,1.29c-2.14-4.11-4.85-6.84-7.91-7.18-7.45-.87-14,12.07-14.54,28.87s5,31.11,12.44,32c3.06.36,5.94-1.71,8.32-5.32a5.07,5.07,0,0,1-2.92.62C1503.26,697.66,1498.66,685.85,1499.14,672Z" transform="translate(-144.03 -239.88)"/><path class="cls-1" d="M1521.48,674.54c.4-11.59-2.78-21.65-7.43-25.13,3.06,5.94,4.88,14.9,4.53,24.79s-2.76,18.36-6.22,23.55C1517.23,695.4,1521.06,686.15,1521.48,674.54Z" transform="translate(-144.03 -239.88)"/><path class="cls-2" d="M1499.14,672c.47-13.88,5.87-24.56,12-23.85,2.8.3,5.27,3,7.09,7.1-2.25-7.25-5.84-12.26-10.11-12.77-7.47-.85-14,12.07-14.58,28.88-.53,14.82,3.68,27.13,9.84,30.52a37.7,37.7,0,0,0,5.26,1.15l.63-.21s1.53-2,3.46-5.24a5.35,5.35,0,0,1-3.32.82C1503.26,697.66,1498.66,685.85,1499.14,672Z" transform="translate(-144.03 -239.88)"/><path class="cls-2" d="M1521.48,674.54c.25-7.58-1-14.44-3.22-19.32a59.58,59.58,0,0,1,2.33,19.22c-.3,8.9-4.62,17.7-7.83,23.11C1517.43,694.88,1521.08,685.82,1521.48,674.54Z" transform="translate(-144.03 -239.88)"/><path class="cls-3" d="M1521.48,674.54c-.51,13.88-5.87,24.56-12,23.83s-10.78-12.52-10.3-26.4,5.87-24.56,12-23.85S1522,660.66,1521.48,674.54Z" transform="translate(-144.03 -239.88)"/><path class="cls-3" d="M1523.32,674.75c-.58,16.8-7.1,29.72-14.55,28.86s-13-15.19-12.48-32,7.11-29.72,14.6-28.86S1523.92,658,1523.32,674.75Z" transform="translate(-144.03 -239.88)"/><path class="cls-3" d="M1520.59,674.44c-.48,14.29-11.29,28.35-11.29,28.35l-.53.82a37.1,37.1,0,0,1-5.26-1.15c-6.16-3.41-10.47-16.31-9.94-31.13.59-16.81,7.11-29.73,14.58-28.88S1521.19,657.64,1520.59,674.44Z" transform="translate(-144.03 -239.88)"/><path class="cls-4" d="M1521.63,673.73c-.49,14.48-6.24,25.59-12.83,24.85s-11.52-13.11-11-27.59,6.23-25.62,12.84-24.85S1522.13,659.26,1521.63,673.73Z" transform="translate(-144.03 -239.88)"/><path class="cls-1" d="M1511.14,642.81c-7.61-.88-14.26,12-14.85,28.82s5.12,31.12,12.73,32,14.23-12,14.79-28.82S1518.7,643.69,1511.14,642.81Zm-1.7,55.56c-6.18-.71-10.78-12.52-10.3-26.4s5.87-24.56,12-23.85,10.78,12.54,10.31,26.42S1515.61,699.1,1509.44,698.37Z" transform="translate(-144.03 -239.88)"/><path class="cls-1" d="M1532.78,672.21c.39-12.05,5.09-21.32,10.44-20.71a5.41,5.41,0,0,1,2.5,1.12c-1.86-3.56-4.21-5.94-6.87-6.23-6.48-.76-12.14,10.49-12.64,25.07s4.32,27,10.82,27.76c2.67.32,5.14-1.48,7.22-4.62a4.33,4.33,0,0,1-2.54.54C1536.35,694.52,1532.35,684.27,1532.78,672.21Z" transform="translate(-144.03 -239.88)"/><path class="cls-1" d="M1552.17,674.44c.34-10.06-2.42-18.8-6.45-21.82,2.65,5.16,4.24,12.94,4,21.53s-2.43,16-5.42,20.45C1548.48,692.57,1551.81,684.52,1552.17,674.44Z" transform="translate(-144.03 -239.88)"/><path class="cls-2" d="M1532.78,672.21c.39-12.05,5.09-21.32,10.44-20.71,2.43.27,4.58,2.62,6.15,6.17-1.95-6.3-5.07-10.65-8.79-11.09-6.48-.75-12.13,10.48-12.65,25.09-.45,12.85,3.2,23.55,8.55,26.49a31.83,31.83,0,0,0,4.56,1l.54-.18s1.34-1.77,3-4.56a4.65,4.65,0,0,1-2.88.71C1536.35,694.52,1532.35,684.27,1532.78,672.21Z" transform="translate(-144.03 -239.88)"/><path class="cls-2" d="M1552.17,674.44a39.09,39.09,0,0,0-2.8-16.77,51.68,51.68,0,0,1,2,16.7c-.26,7.71-4,15.36-6.81,20.06C1548.65,692.11,1551.82,684.24,1552.17,674.44Z" transform="translate(-144.03 -239.88)"/><path class="cls-3" d="M1552.17,674.44c-.43,12.06-5.1,21.34-10.46,20.7s-9.36-10.87-8.93-22.93,5.09-21.32,10.44-20.71S1552.58,662.39,1552.17,674.44Z" transform="translate(-144.03 -239.88)"/><path class="cls-3" d="M1553.78,674.63c-.51,14.59-6.18,25.81-12.64,25.07s-11.35-13.19-10.84-27.78,6.17-25.81,12.67-25.07S1554.29,660,1553.78,674.63Z" transform="translate(-144.03 -239.88)"/><path class="cls-3" d="M1551.4,674.37c-.42,12.41-9.82,24.62-9.82,24.62l-.44.71a31.43,31.43,0,0,1-4.58-1c-5.35-3-9.08-14.17-8.63-27,.52-14.61,6.17-25.84,12.65-25.09S1551.91,659.77,1551.4,674.37Z" transform="translate(-144.03 -239.88)"/><path class="cls-4" d="M1552.3,673.74c-.43,12.58-5.42,22.24-11.15,21.59s-10-11.4-9.57-24,5.41-22.26,11.14-21.58S1552.75,661.17,1552.3,673.74Z" transform="translate(-144.03 -239.88)"/><path class="cls-1" d="M1543.18,646.89c-6.6-.77-12.37,10.43-12.88,25s4.45,27,11,27.8,12.36-10.45,12.84-25S1549.76,647.65,1543.18,646.89Zm-1.47,48.25c-5.36-.62-9.36-10.87-8.93-22.93s5.09-21.32,10.44-20.71,9.36,10.89,9,22.94S1547.07,695.78,1541.71,695.14Z" transform="translate(-144.03 -239.88)"/><path class="cls-1" d="M1605.81,665.24c.35-10.57,4.32-18.71,8.86-18.16a4.51,4.51,0,0,1,2.13,1c-1.59-3.13-3.58-5.22-5.84-5.48-5.49-.65-10.29,9.2-10.71,22s3.65,23.68,9.15,24.35c2.28.27,4.38-1.31,6.16-4a3.69,3.69,0,0,1-2.17.47C1608.85,684.8,1605.46,675.81,1605.81,665.24Z" transform="translate(-144.03 -239.88)"/><path class="cls-1" d="M1622.26,667.19c.28-8.82-2-16.48-5.46-19.12,2.24,4.51,3.59,11.34,3.34,18.86s-2.05,14-4.58,17.94C1619.12,683.07,1622,676,1622.26,667.19Z" transform="translate(-144.03 -239.88)"/><path class="cls-2" d="M1605.81,665.24c.35-10.57,4.32-18.71,8.86-18.16,2.06.23,3.88,2.31,5.22,5.4-1.65-5.52-4.29-9.33-7.44-9.72-5.51-.64-10.32,9.19-10.74,22-.39,11.27,2.7,20.64,7.24,23.23a27.46,27.46,0,0,0,3.87.87l.46-.16s1.13-1.55,2.57-4a4,4,0,0,1-2.46.63C1608.85,684.8,1605.46,675.81,1605.81,665.24Z" transform="translate(-144.03 -239.88)"/><path class="cls-2" d="M1622.26,667.19a35,35,0,0,0-2.37-14.71,46.71,46.71,0,0,1,1.71,14.64c-.21,6.78-3.38,13.48-5.75,17.59C1619.28,682.68,1622,675.78,1622.26,667.19Z" transform="translate(-144.03 -239.88)"/><path class="cls-3" d="M1622.26,667.19c-.38,10.57-4.33,18.7-8.87,18.15s-7.93-9.53-7.58-20.1,4.32-18.71,8.86-18.16S1622.61,656.61,1622.26,667.19Z" transform="translate(-144.03 -239.88)"/><path class="cls-3" d="M1623.63,667.35c-.44,12.79-5.24,22.63-10.74,22s-9.61-11.56-9.18-24.35,5.23-22.62,10.74-22S1624.06,654.57,1623.63,667.35Z" transform="translate(-144.03 -239.88)"/><path class="cls-3" d="M1621.6,667.12c-.35,10.88-8.32,21.58-8.32,21.58l-.39.63a25.72,25.72,0,0,1-3.86-.88c-4.54-2.59-7.71-12.42-7.32-23.69.42-12.81,5.23-22.64,10.74-22S1622,654.33,1621.6,667.12Z" transform="translate(-144.03 -239.88)"/><path class="cls-4" d="M1622.37,666.58c-.36,11-4.61,19.49-9.46,18.92s-8.48-10-8.11-21,4.6-19.5,9.45-18.92S1622.75,655.56,1622.37,666.58Z" transform="translate(-144.03 -239.88)"/><path class="cls-1" d="M1614.64,643c-5.61-.67-10.49,9.15-10.93,21.94s3.76,23.69,9.36,24.36,10.5-9.16,10.91-21.93S1620.21,643.7,1614.64,643Zm-1.25,42.3c-4.54-.54-7.93-9.53-7.58-20.1s4.32-18.71,8.86-18.16,7.94,9.53,7.59,20.11S1617.93,685.89,1613.39,685.34Z" transform="translate(-144.03 -239.88)"/><path class="cls-1" d="M1630.59,665.44c.29-9.18,3.76-16.23,7.69-15.77a4,4,0,0,1,1.84.85c-1.37-2.7-3.11-4.52-5.06-4.74-4.76-.57-9,8-9.3,19.08s3.17,20.57,8,21.14c2,.25,3.8-1.13,5.33-3.52a3.07,3.07,0,0,1-1.87.42C1633.23,682.43,1630.26,674.62,1630.59,665.44Z" transform="translate(-144.03 -239.88)"/><path class="cls-1" d="M1644.88,667.14c.24-7.67-1.78-14.32-4.76-16.62,2,3.94,3.13,9.86,2.91,16.39s-1.78,12.14-4,15.57C1642.16,680.93,1644.61,674.81,1644.88,667.14Z" transform="translate(-144.03 -239.88)"/><path class="cls-2" d="M1630.59,665.44c.29-9.18,3.76-16.23,7.69-15.77,1.79.21,3.37,2,4.53,4.69-1.44-4.79-3.73-8.11-6.47-8.43-4.77-.57-8.95,8-9.33,19.09-.32,9.8,2.36,17.93,6.31,20.17a22.07,22.07,0,0,0,3.35.77l.41-.14s1-1.34,2.21-3.48a3.25,3.25,0,0,1-2.12.56C1633.23,682.43,1630.26,674.62,1630.59,665.44Z" transform="translate(-144.03 -239.88)"/><path class="cls-2" d="M1644.88,667.14a30.55,30.55,0,0,0-2.07-12.78,40.44,40.44,0,0,1,1.5,12.72c-.2,5.88-3,11.69-5,15.26C1642.28,680.59,1644.61,674.59,1644.88,667.14Z" transform="translate(-144.03 -239.88)"/><path class="cls-3" d="M1644.88,667.14c-.33,9.17-3.77,16.24-7.71,15.76s-6.91-8.28-6.58-17.46,3.76-16.23,7.69-15.77S1645.17,658,1644.88,667.14Z" transform="translate(-144.03 -239.88)"/><path class="cls-3" d="M1646,667.28c-.35,11.11-4.54,19.64-9.3,19.08s-8.36-10-8-21.15,4.56-19.65,9.34-19.08S1646.43,656.18,1646,667.28Z" transform="translate(-144.03 -239.88)"/><path class="cls-3" d="M1644.31,667.08c-.31,9.45-7.23,18.74-7.23,18.74l-.34.54a20.53,20.53,0,0,1-3.36-.77c-3.94-2.24-6.69-10.77-6.37-20.57.38-11.12,4.56-19.66,9.33-19.09S1644.68,656,1644.31,667.08Z" transform="translate(-144.03 -239.88)"/><path class="cls-4" d="M1645,666.61c-.31,9.57-4,16.92-8.22,16.42s-7.36-8.66-7-18.24,4-16.94,8.21-16.42S1645.29,657,1645,666.61Z" transform="translate(-144.03 -239.88)"/><path class="cls-1" d="M1638.25,646.16c-4.86-.59-9.11,7.94-9.49,19.05s3.27,20.59,8.14,21.16,9.11-8,9.46-19S1643.09,646.74,1638.25,646.16Zm-1.08,36.74c-3.94-.47-6.91-8.28-6.58-17.46s3.76-16.23,7.69-15.77,6.89,8.29,6.6,17.47S1641.11,683.38,1637.17,682.9Z" transform="translate(-144.03 -239.88)"/><path class="cls-1" d="M1684.08,662.43c.25-7.83,3.16-13.86,6.54-13.47a3.43,3.43,0,0,1,1.57.71c-1.18-2.29-2.67-3.84-4.33-4-4.07-.48-7.6,6.83-7.89,16.29s2.76,17.55,6.84,18c1.68.2,3.24-1,4.54-3a2.64,2.64,0,0,1-1.6.36C1686.38,676.92,1683.85,670.27,1684.08,662.43Z" transform="translate(-144.03 -239.88)"/><path class="cls-1" d="M1696.29,663.85c.19-6.54-1.56-12.21-4.1-14.18,1.68,3.35,2.69,8.4,2.51,14s-1.47,10.37-3.35,13.29C1694,675.63,1696.08,670.38,1696.29,663.85Z" transform="translate(-144.03 -239.88)"/><path class="cls-2" d="M1684.08,662.43c.25-7.83,3.16-13.86,6.54-13.47,1.52.17,2.87,1.7,3.89,4-1.24-4.09-3.22-6.9-5.55-7.19-4.07-.47-7.62,6.84-7.91,16.33-.26,8.35,2.06,15.29,5.41,17.19a20.07,20.07,0,0,0,2.88.65l.34-.13s.83-1.14,1.89-3a2.94,2.94,0,0,1-1.82.47C1686.38,676.92,1683.85,670.27,1684.08,662.43Z" transform="translate(-144.03 -239.88)"/><path class="cls-2" d="M1696.29,663.85a26.83,26.83,0,0,0-1.78-10.9,35,35,0,0,1,1.29,10.85c-.15,5-2.49,10-4.23,13C1694.1,675.33,1696.08,670.2,1696.29,663.85Z" transform="translate(-144.03 -239.88)"/><path class="cls-3" d="M1696.29,663.85c-.25,7.83-3.17,13.87-6.54,13.46s-5.9-7-5.67-14.88,3.16-13.86,6.54-13.47S1696.53,656,1696.29,663.85Z" transform="translate(-144.03 -239.88)"/><path class="cls-3" d="M1697.29,664c-.3,9.48-3.83,16.79-7.91,16.31s-7.14-8.55-6.84-18,3.83-16.78,7.9-16.31S1697.6,654.49,1697.29,664Z" transform="translate(-144.03 -239.88)"/><path class="cls-3" d="M1695.8,663.8c-.25,8.07-6.12,16-6.12,16l-.3.47a18.83,18.83,0,0,1-2.86-.64c-3.38-1.91-5.73-9.19-5.47-17.54.29-9.49,3.84-16.8,7.91-16.33S1696.1,654.32,1695.8,663.8Z" transform="translate(-144.03 -239.88)"/><path class="cls-4" d="M1696.37,663.4c-.25,8.16-3.38,14.44-7,14s-6.33-7.39-6.07-15.55,3.36-14.47,7-14S1696.62,655.22,1696.37,663.4Z" transform="translate(-144.03 -239.88)"/><path class="cls-1" d="M1690.58,646c-4.15-.48-7.76,6.79-8,16.28s2.84,17.54,7,18,7.76-6.82,8-16.29S1694.72,646.45,1690.58,646Zm-.83,31.34c-3.37-.39-5.9-7-5.67-14.88s3.16-13.86,6.54-13.47,5.91,7,5.67,14.89S1693.12,677.72,1689.75,677.31Z" transform="translate(-144.03 -239.88)"/><path class="cls-1" d="M1703,662.47c.21-6.79,2.75-12,5.66-11.69a2.79,2.79,0,0,1,1.37.62c-1-2-2.3-3.34-3.76-3.51-3.52-.41-6.61,6-6.86,14.17s2.41,15.22,5.94,15.64c1.47.18,2.82-.83,3.94-2.61a2.31,2.31,0,0,1-1.38.31C1705,675.06,1702.77,669.28,1703,662.47Z" transform="translate(-144.03 -239.88)"/><path class="cls-1" d="M1713.58,663.71c.15-5.69-1.36-10.61-3.57-12.31a26.59,26.59,0,0,1,2.2,12.14c-.15,4.85-1.3,9-2.94,11.55C1711.58,673.94,1713.4,669.39,1713.58,663.71Z" transform="translate(-144.03 -239.88)"/><path class="cls-2" d="M1703,662.47c.21-6.79,2.75-12,5.66-11.69,1.34.14,2.51,1.47,3.37,3.46-1.07-3.54-2.77-6-4.8-6.24-3.55-.4-6.62,5.94-6.88,14.18-.22,7.26,1.79,13.28,4.71,14.92a14.81,14.81,0,0,0,2.49.57l.3-.1s.72-1,1.65-2.58a2.54,2.54,0,0,1-1.59.41C1705,675.06,1702.77,669.28,1703,662.47Z" transform="translate(-144.03 -239.88)"/><path class="cls-2" d="M1713.58,663.71a22.8,22.8,0,0,0-1.57-9.47,30.28,30.28,0,0,1,1.15,9.43c-.14,4.36-2.18,8.67-3.68,11.32C1711.67,673.67,1713.4,669.23,1713.58,663.71Z" transform="translate(-144.03 -239.88)"/><path class="cls-3" d="M1713.58,663.71c-.22,6.8-2.76,12-5.69,11.69s-5.12-6.12-4.91-12.93,2.75-12,5.66-11.69S1713.78,656.91,1713.58,663.71Z" transform="translate(-144.03 -239.88)"/><path class="cls-3" d="M1714.44,663.82c-.25,8.22-3.33,14.56-6.86,14.15s-6.21-7.42-5.95-15.65,3.33-14.57,6.87-14.16S1714.7,655.58,1714.44,663.82Z" transform="translate(-144.03 -239.88)"/><path class="cls-3" d="M1713.16,663.67c-.21,7-5.33,13.9-5.33,13.9l-.25.4a15.39,15.39,0,0,1-2.49-.57c-2.92-1.65-5-8-4.76-15.22.26-8.24,3.33-14.58,6.88-14.18S1713.41,655.44,1713.16,663.67Z" transform="translate(-144.03 -239.88)"/><path class="cls-4" d="M1713.65,663.31c-.22,7.1-2.93,12.54-6.07,12.2s-5.46-6.41-5.25-13.5,2.91-12.56,6.05-12.2S1713.85,656.21,1713.65,663.31Z" transform="translate(-144.03 -239.88)"/><path class="cls-1" d="M1708.63,648.18c-3.62-.42-6.74,5.9-7,14.14s2.45,15.24,6.07,15.66,6.73-5.91,7-14.13S1712.2,648.6,1708.63,648.18Zm-.74,27.22c-2.91-.34-5.12-6.12-4.91-12.93s2.75-12,5.66-11.69,5.14,6.13,4.94,12.93S1710.82,675.74,1707.89,675.4Z" transform="translate(-144.03 -239.88)"/><path class="cls-1" d="M1730.26,657.69c.07-7.83,2.84-13.93,6.23-13.62a3.56,3.56,0,0,1,1.58.68c-1.22-2.27-2.74-3.78-4.41-3.92-4.08-.39-7.45,7-7.54,16.46s3.15,17.48,7.24,17.88c1.68.16,3.22-1,4.47-3.13a2.54,2.54,0,0,1-1.59.39C1732.87,672.13,1730.2,665.52,1730.26,657.69Z" transform="translate(-144.03 -239.88)"/><path class="cls-1" d="M1742.48,658.83c0-6.54-1.82-12.16-4.41-14.08,1.76,3.32,2.88,8.35,2.83,13.94s-1.26,10.39-3.07,13.35C1740.46,670.67,1742.43,665.37,1742.48,658.83Z" transform="translate(-144.03 -239.88)"/><path class="cls-2" d="M1730.26,657.69c.07-7.83,2.84-13.93,6.23-13.62,1.52.14,2.92,1.64,4,3.91-1.33-4.07-3.36-6.83-5.7-7.06-4.09-.38-7.47,7-7.55,16.49-.07,8.37,2.4,15.25,5.8,17.07a19.62,19.62,0,0,0,2.88.58l.34-.13s.81-1.16,1.82-3a2.84,2.84,0,0,1-1.81.51C1732.87,672.13,1730.2,665.52,1730.26,657.69Z" transform="translate(-144.03 -239.88)"/><path class="cls-2" d="M1742.48,658.83a26.39,26.39,0,0,0-2-10.85A34.32,34.32,0,0,1,1742,658.8c0,5-2.27,10-4,13.12C1740.55,670.36,1742.42,665.19,1742.48,658.83Z" transform="translate(-144.03 -239.88)"/><path class="cls-3" d="M1742.48,658.83c-.08,7.83-2.86,13.94-6.24,13.6s-6-6.91-6-14.74,2.84-13.93,6.23-13.62S1742.55,651,1742.48,658.83Z" transform="translate(-144.03 -239.88)"/><path class="cls-3" d="M1743.5,658.93c-.09,9.48-3.46,16.86-7.55,16.47s-7.33-8.38-7.25-17.85,3.47-16.86,7.54-16.49S1743.57,649.44,1743.5,658.93Z" transform="translate(-144.03 -239.88)"/><path class="cls-3" d="M1742,658.8c-.07,8.07-5.77,16.13-5.77,16.13l-.28.47a19.13,19.13,0,0,1-2.88-.57c-3.41-1.84-5.93-9.05-5.86-17.42.08-9.5,3.46-16.87,7.55-16.49S1742.08,649.31,1742,658.8Z" transform="translate(-144.03 -239.88)"/><path class="cls-4" d="M1742.55,658.37c-.06,8.18-3,14.52-6.64,14.2s-6.48-7.24-6.42-15.42,3-14.53,6.65-14.18S1742.63,650.2,1742.55,658.37Z" transform="translate(-144.03 -239.88)"/><path class="cls-1" d="M1736.4,641.08c-4.17-.39-7.62,7-7.7,16.47s3.23,17.46,7.39,17.86,7.61-7,7.67-16.44S1740.54,641.47,1736.4,641.08Zm-.16,31.35c-3.37-.3-6-6.91-6-14.74s2.84-13.93,6.23-13.62,6.06,6.92,6,14.76S1739.62,672.77,1736.24,672.43Z" transform="translate(-144.03 -239.88)"/><path class="cls-1" d="M1749.88,657.34c0-6.81,2.48-12.09,5.42-11.82a2.91,2.91,0,0,1,1.38.58c-1.08-2-2.4-3.29-3.84-3.41-3.54-.34-6.48,6.09-6.54,14.31s2.73,15.17,6.28,15.51c1.46.15,2.8-.91,3.89-2.7a2.46,2.46,0,0,1-1.38.34C1752.15,669.88,1749.82,664.14,1749.88,657.34Z" transform="translate(-144.03 -239.88)"/><path class="cls-1" d="M1760.5,658.33c0-5.69-1.58-10.58-3.82-12.23a26.59,26.59,0,0,1,2.45,12.09c0,4.86-1.09,9-2.66,11.62C1758.74,668.61,1760.45,664,1760.5,658.33Z" transform="translate(-144.03 -239.88)"/><path class="cls-2" d="M1749.88,657.34c0-6.81,2.48-12.09,5.42-11.82,1.34.11,2.52,1.41,3.44,3.38-1.16-3.51-2.91-5.93-5-6.13-3.54-.32-6.46,6.08-6.55,14.33-.06,7.26,2.09,13.23,5,14.81a14.82,14.82,0,0,0,2.49.52l.3-.11s.69-1,1.58-2.61a2.52,2.52,0,0,1-1.56.44C1752.15,669.88,1749.82,664.14,1749.88,657.34Z" transform="translate(-144.03 -239.88)"/><path class="cls-2" d="M1760.5,658.33a22.66,22.66,0,0,0-1.76-9.43,30.07,30.07,0,0,1,1.34,9.4c0,4.36-2,8.72-3.43,11.41C1758.82,668.33,1760.45,663.86,1760.5,658.33Z" transform="translate(-144.03 -239.88)"/><path class="cls-3" d="M1760.5,658.33c-.06,6.8-2.49,12.1-5.41,11.82s-5.27-6-5.21-12.81,2.48-12.09,5.42-11.82S1760.57,651.52,1760.5,658.33Z" transform="translate(-144.03 -239.88)"/><path class="cls-3" d="M1761.37,658.42c-.06,8.23-3,14.63-6.53,14.3s-6.39-7.28-6.3-15.51,3-14.64,6.55-14.3S1761.45,650.19,1761.37,658.42Z" transform="translate(-144.03 -239.88)"/><path class="cls-3" d="M1760.08,658.3c0,7-5,14-5,14l-.23.4a15.72,15.72,0,0,1-2.52-.51c-3-1.58-5.15-7.85-5.09-15.11.09-8.25,3-14.65,6.55-14.33S1760.15,650.06,1760.08,658.3Z" transform="translate(-144.03 -239.88)"/><path class="cls-4" d="M1760.58,657.93c-.07,7.1-2.66,12.61-5.8,12.33s-5.61-6.29-5.56-13.39,2.65-12.61,5.78-12.32S1760.62,650.83,1760.58,657.93Z" transform="translate(-144.03 -239.88)"/><path class="cls-1" d="M1755.21,642.92c-3.63-.35-6.6,6.05-6.67,14.29s2.79,15.18,6.41,15.52,6.6-6.07,6.66-14.29S1758.8,643.25,1755.21,642.92Zm-.12,27.23c-2.94-.27-5.27-6-5.21-12.81s2.48-12.09,5.42-11.82,5.27,6,5.2,12.81S1758,670.43,1755.09,670.15Z" transform="translate(-144.03 -239.88)"/><path class="cls-1" d="M509.6,761.68c.94-23.59,11.86-41.74,24.33-40.53a14,14,0,0,1,5.85,2.2c-4.35-7-9.83-11.63-16-12.21-15.13-1.49-28.31,20.52-29.44,49.06s10.09,52.89,25.22,54.36c6.2.63,12-2.91,16.87-9a12,12,0,0,1-5.93,1.06C518,805.39,508.62,785.28,509.6,761.68Z" transform="translate(-144.03 -239.88)"/><path class="cls-1" d="M554.81,766.06c.81-19.69-5.65-36.79-15-42.71,6.18,10.08,9.87,25.33,9.19,42.14s-5.59,31.22-12.57,40C546.21,801.53,554,785.79,554.81,766.06Z" transform="translate(-144.03 -239.88)"/><path class="cls-2" d="M509.6,761.68c.94-23.59,11.86-41.74,24.33-40.53,5.67.53,10.66,5.14,14.34,12.07-4.53-12.34-11.81-20.84-20.48-21.71-15.11-1.46-28.29,20.51-29.47,49.09-1,25.18,7.48,46.1,19.93,51.88,1.68.78,10.67,2,10.67,2l1.23-.35s3.09-3.45,7-8.93a12.78,12.78,0,0,1-6.72,1.41C518,805.39,508.62,785.28,509.6,761.68Z" transform="translate(-144.03 -239.88)"/><path class="cls-2" d="M554.81,766.06c.51-12.87-2.08-24.53-6.54-32.84A85.45,85.45,0,0,1,553,765.91c-.61,15.12-9.34,30.08-15.83,39.26C546.63,800.65,554,785.24,554.81,766.06Z" transform="translate(-144.03 -239.88)"/><path class="cls-3" d="M554.81,766.06c-1,23.6-11.86,41.76-24.34,40.52s-21.85-21.3-20.87-44.9,11.86-41.74,24.33-40.53S555.78,742.47,554.81,766.06Z" transform="translate(-144.03 -239.88)"/><path class="cls-3" d="M558.57,766.44c-1.18,28.56-14.36,50.51-29.46,49s-26.44-25.83-25.28-54.38,14.37-50.52,29.5-49.05S559.74,737.89,558.57,766.44Z" transform="translate(-144.03 -239.88)"/><path class="cls-3" d="M553,765.91c-1,24.29-22.87,48.19-22.87,48.19l-1,1.39s-9-1.21-10.67-2c-12.46-5.8-21.16-27.75-20.12-52.93,1.18-28.58,14.36-50.55,29.47-49.09S554.2,737.35,553,765.91Z" transform="translate(-144.03 -239.88)"/><path class="cls-4" d="M555.14,764.7c-1,24.63-12.63,43.51-26,42.23S505.84,784.63,506.8,760s12.64-43.53,26-42.21S556.14,740.09,555.14,764.7Z" transform="translate(-144.03 -239.88)"/><path class="cls-1" d="M533.83,712.13c-15.39-1.51-28.81,20.41-30,49s10.36,52.91,25.78,54.42,28.81-20.46,29.94-49S549.18,713.61,533.83,712.13Zm-3.36,94.45c-12.51-1.19-21.85-21.3-20.87-44.9s11.86-41.74,24.33-40.53,21.85,21.32,20.88,44.91S543,807.82,530.47,806.58Z" transform="translate(-144.03 -239.88)"/><path class="cls-1" d="M381.57,783.55c.94-23.6,11.86-41.75,24.33-40.53a13.66,13.66,0,0,1,5.85,2.19c-4.34-7-9.83-11.63-16-12.21-15.12-1.47-28.31,20.53-29.44,49.07S376.37,835,391.5,836.42c6.21.63,12-2.9,16.88-9a12.13,12.13,0,0,1-5.93,1.05C389.94,827.26,380.6,807.15,381.57,783.55Z" transform="translate(-144.03 -239.88)"/><path class="cls-1" d="M426.8,787.93c.8-19.69-5.66-36.8-15.05-42.72,6.18,10.09,9.88,25.33,9.19,42.15s-5.6,31.21-12.56,40C418.18,823.4,426,807.65,426.8,787.93Z" transform="translate(-144.03 -239.88)"/><path class="cls-2" d="M381.57,783.55c.94-23.6,11.86-41.75,24.33-40.53,5.68.53,10.66,5.13,14.34,12.07-4.53-12.33-11.79-20.84-20.48-21.7-15.09-1.48-28.29,20.5-29.47,49.08-1,25.18,7.48,46.1,19.94,51.88,1.69.77,10.66,2,10.66,2l1.24-.36a113.48,113.48,0,0,0,7-8.93,12.6,12.6,0,0,1-6.72,1.42C389.94,827.26,380.6,807.15,381.57,783.55Z" transform="translate(-144.03 -239.88)"/><path class="cls-2" d="M426.8,787.93c.51-12.87-2.1-24.54-6.56-32.84A85.45,85.45,0,0,1,425,787.78c-.6,15.12-9.33,30.08-15.82,39.25C418.61,822.5,426,807.11,426.8,787.93Z" transform="translate(-144.03 -239.88)"/><path class="cls-3" d="M426.8,787.93c-1,23.6-11.89,41.75-24.35,40.52s-21.85-21.3-20.88-44.9S393.43,741.8,405.9,743,427.75,764.33,426.8,787.93Z" transform="translate(-144.03 -239.88)"/><path class="cls-3" d="M430.55,788.3c-1.18,28.57-14.36,50.53-29.48,49.05S374.64,811.53,375.8,783s14.37-50.51,29.5-49.05S431.71,759.75,430.55,788.3Z" transform="translate(-144.03 -239.88)"/><path class="cls-3" d="M425,787.78C424,812.07,402.13,836,402.13,836l-1.06,1.39s-9-1.2-10.65-2c-12.46-5.78-21.17-27.73-20.13-52.91,1.18-28.58,14.38-50.56,29.47-49.08S426.18,759.22,425,787.78Z" transform="translate(-144.03 -239.88)"/><path class="cls-4" d="M427.11,786.56c-1,24.63-12.64,43.53-26,42.24s-23.31-22.3-22.35-46.92,12.64-43.53,26-42.22S428.11,762,427.11,786.56Z" transform="translate(-144.03 -239.88)"/><path class="cls-1" d="M405.81,734c-15.4-1.51-28.82,20.41-30,49s10.37,52.91,25.78,54.43,28.81-20.46,29.95-49S421.16,735.49,405.81,734Zm-3.36,94.45c-12.51-1.19-21.85-21.3-20.88-44.9S393.43,741.8,405.9,743s21.85,21.31,20.9,44.91S414.91,829.68,402.45,828.45Z" transform="translate(-144.03 -239.88)"/><path class="cls-5" d="M1599.55,680.35l3.39-151.22c-4.4-42.91-27.7-60.48-44.63-67.64a30.75,30.75,0,0,0-6.15-1.38c-10.16,0-39.32,6.87-47.78,23.63-14.86,29.44-11.31,186.71-11.31,186.71Z" transform="translate(-144.03 -239.88)"/><path class="cls-6" d="M1533.91,425a68.78,68.78,0,0,1,23.56-2.41c12.28,1.11,188.38,63.82,188.38,63.82s30,20.72,29.94,45.59-.63,102-.63,102l-175.31,8.64-67.79-10S1528.16,446.32,1533.91,425Z" transform="translate(-144.03 -239.88)"/><polygon class="cls-7" points="1628.2 390 1627.39 422.17 1453.63 440.46 1455.92 398.22 1628.2 390"/><path class="cls-8" d="M1533.87,425.14c12.91,23.68,66.59,66.66,66.59,66.66L1776,533.14a10.08,10.08,0,0,1-.18-1.17c-.42-25.61-29.94-45.59-29.94-45.59s-176.1-62.71-188.38-63.82a68.78,68.78,0,0,0-23.56,2.41A.35.35,0,0,1,1533.87,425.14Z" transform="translate(-144.03 -239.88)"/><path class="cls-9" d="M1599.85,642.59l3.4-151.21c-4.4-42.91-27.72-60.49-44.64-67.64a30.88,30.88,0,0,0-6.14-1.39c-10.16,0-39.33,6.87-47.77,23.64-14.87,29.43-11.33,186.7-11.33,186.7Z" transform="translate(-144.03 -239.88)"/><path class="cls-10" d="M1620.8,617.8a2.57,2.57,0,0,1-2.19,2.07l-6.41.06c-1.23,0-2.24-1.44-2.26-3.26l-1-113.06c0-1.81,1-3.29,2.2-3.3l6.4,1.18c1.24,0,2.25.22,2.26,3.26Z" transform="translate(-144.03 -239.88)"/><path class="cls-11" d="M1700,577.43a1.47,1.47,0,0,1-1.41,1.54l-4.07-.09a1.48,1.48,0,0,1-1.45-1.53l-.48-53.2a1.47,1.47,0,0,1,1.4-1.55l4.1.92a1.48,1.48,0,0,1,1.45,1.52Z" transform="translate(-144.03 -239.88)"/><path class="cls-11" d="M1710.86,577.4a1.43,1.43,0,0,1-1.41,1.47l-4.08-.08a1.45,1.45,0,0,1-1.45-1.45l-.46-50.54a1.46,1.46,0,0,1,1.42-1.48l4.1.86a1.45,1.45,0,0,1,1.43,1.47Z" transform="translate(-144.03 -239.88)"/><path class="cls-11" d="M1720.9,577.38a1.36,1.36,0,0,1-1.28,1.4l-3.68-.09a1.33,1.33,0,0,1-1.29-1.37l-.43-47.63a1.33,1.33,0,0,1,1.27-1.38l3.68.79a1.34,1.34,0,0,1,1.29,1.38Z" transform="translate(-144.03 -239.88)"/><path class="cls-11" d="M1731.63,578.62a1.31,1.31,0,0,1-1.27,1.34l-3.68-.09a1.31,1.31,0,0,1-1.3-1.31l-.41-45.94a1.31,1.31,0,0,1,1.27-1.35l3.69.77a1.32,1.32,0,0,1,1.29,1.34Z" transform="translate(-144.03 -239.88)"/><path class="cls-11" d="M1740.84,578.59a1.21,1.21,0,0,1-1.09,1.28l-3.13-.09a1.19,1.19,0,0,1-1.1-1.26l-.39-44.13a1.21,1.21,0,0,1,1.07-1.3l3.14.75a1.2,1.2,0,0,1,1.09,1.28Z" transform="translate(-144.03 -239.88)"/><path class="cls-11" d="M1749.55,578.58a1.14,1.14,0,0,1-1.07,1.2l-3.12-.06a1.15,1.15,0,0,1-1.09-1.19l-.38-41.68a1.15,1.15,0,0,1,1.07-1.21l3.11.72a1.14,1.14,0,0,1,1.11,1.2Z" transform="translate(-144.03 -239.88)"/><path class="cls-11" d="M1757.84,579.27a1.08,1.08,0,0,1-.95,1.17l-2.74-.06a1.08,1.08,0,0,1-1-1.15l-.35-40.26a1,1,0,0,1,.93-1.17l2.75.69a1.07,1.07,0,0,1,1,1.16Z" transform="translate(-144.03 -239.88)"/><path class="cls-11" d="M1766.11,579.33a1,1,0,0,1-.83,1.1l-2.42-.08a1,1,0,0,1-.86-1.08l-.33-37.64a1,1,0,0,1,.83-1.1l2.43.65a1,1,0,0,1,.85,1.09Z" transform="translate(-144.03 -239.88)"/><path class="cls-11" d="M1649.87,574.44a2,2,0,0,1-2.2,1.81l-6.43-.4a2,2,0,0,1-2.24-1.77l-.56-61.57a2,2,0,0,1,2.21-1.81l6.44,1a2.07,2.07,0,0,1,2.24,1.75Z" transform="translate(-144.03 -239.88)"/><path class="cls-11" d="M1663.9,575.25a1.88,1.88,0,0,1-2,1.73l-5.84-.3a1.88,1.88,0,0,1-2-1.67l-.52-58.68a1.87,1.87,0,0,1,2-1.72l5.85,1a1.88,1.88,0,0,1,2,1.7Z" transform="translate(-144.03 -239.88)"/><path class="cls-11" d="M1677,575.65a1.86,1.86,0,0,1-2,1.66l-5.9-.4a2.23,2.23,0,0,1-2-2.13l-.5-56.32a1.85,1.85,0,0,1,2-1.63l5.84.93a1.86,1.86,0,0,1,2,1.61Z" transform="translate(-144.03 -239.88)"/><path class="cls-11" d="M1689.46,576.35a1.73,1.73,0,0,1-1.82,1.64l-5.23.13a1.72,1.72,0,0,1-1.83-1.59l-.5-55.6c0-.9.79-1.29,1.81-1.3l5.24.93a1.94,1.94,0,0,1,1.83,1.84Z" transform="translate(-144.03 -239.88)"/><polygon class="cls-7" points="1450.91 392.46 1449.46 440.77 1070.32 472.13 1067.79 404.36 1450.91 392.46"/><path class="cls-6" d="M1054.66,335.86s24.9-9.3,52-8c25.26,1.22,365.57,78.71,411.15,89.1,3.29.75,3.77.95,5,1.16,43,7.18,64.06,32.44,69.74,67.8,6,37.39,2.18,152.61,2.18,152.61l-407.9,19.17-134.38-13.88S1042.16,368.07,1054.66,335.86Z" transform="translate(-144.03 -239.88)"/><path class="cls-8" d="M1054.6,332.42c28.69,35.15,147.52,98.13,147.52,98.13L1593,487.39c-.14-.57-.32-1.19-.4-1.74-4.83-37.31-31.19-61.53-69.71-67.51-1.83-.28-2.54-.57-7.2-1.64-53.17-12.12-384.11-87.41-409-88.62-27.09-1.32-52,6.35-52,6.35S1054.63,332.34,1054.6,332.42Z" transform="translate(-144.03 -239.88)"/><path class="cls-5" d="M1214.36,712l-5-227.15c-10.77-68.72-68.28-97.33-106.6-102.1-24.87-3.11-65,17.07-75.06,27.76-40.43,42.86-30.48,83.15-30.59,139.79C996.9,637,998.44,716,998.44,716l189.5-3.19Z" transform="translate(-144.03 -239.88)"/><path class="cls-9" d="M1213.12,656.5l-4.87-226.69c-10.77-68.71-68.31-97.31-106.61-102.11-24.87-3.09-65,17.08-75.07,27.77-40.43,42.87-30.46,83.16-30.58,139.78-.17,86.68,1.38,165.68,1.38,165.68l189.5-3.21Z" transform="translate(-144.03 -239.88)"/><path class="cls-10" d="M1248.19,617.24a4.93,4.93,0,0,1-4.84,5l-14.13.28a4.94,4.94,0,0,1-5-4.82L1220.89,448a4.93,4.93,0,0,1,4.84-5l14.13-.27a4.91,4.91,0,0,1,5,4.82Z" transform="translate(-144.03 -239.88)"/><path class="cls-11" d="M1279.1,552.32c0,1.55-2.15,2.85-4.86,2.91l-14.15,0c-2.71.06-4.95-1.15-5-2.7l-1.89-96.82c0-1.56,2.15-2.85,4.87-2.91l14.16,1.43c2.73-.05,4.94,1.16,5,2.72Z" transform="translate(-144.03 -239.88)"/><path class="cls-11" d="M1422.54,556.14c0,1.28-1.36,2.34-3.11,2.38l-9,0c-1.73,0-3.15-1-3.18-2.25l-1.55-79.83c0-1.27,1.36-2.33,3.08-2.37l9.07,1.24c1.74,0,3.17,1,3.19,2.25Z" transform="translate(-144.03 -239.88)"/><path class="cls-11" d="M1446.51,555.8c0,1.2-1.36,2.22-3.1,2.25l-9,0c-1.73,0-3.17-.92-3.19-2.13l-1.48-75.84c0-1.21,1.36-2.22,3.1-2.25l9,1.16c1.74,0,3.17.93,3.19,2.14Z" transform="translate(-144.03 -239.88)"/><path class="cls-11" d="M1468.65,555.5c0,1.13-1.24,2.09-2.8,2.12l-8.13,0c-1.56,0-2.84-.87-2.86-2l-1.4-71.48c0-1.15,1.23-2.09,2.78-2.13l8.17,1.11c1.55,0,2.84.87,2.86,2Z" transform="translate(-144.03 -239.88)"/><path class="cls-11" d="M1492.34,557c0,1.1-1.22,2-2.78,2.05l-8.14,0c-1.56,0-2.84-.84-2.86-1.95l-1.35-69c0-1.1,1.24-2,2.79-2l8.15,1.07c1.56,0,2.84.83,2.87,1.95Z" transform="translate(-144.03 -239.88)"/><path class="cls-11" d="M1512.62,556.7a2.18,2.18,0,0,1-2.35,2l-6.9,0a2.19,2.19,0,0,1-2.42-1.87l-1.3-66.25a2.19,2.19,0,0,1,2.36-2l6.91,1a2.2,2.2,0,0,1,2.43,1.89Z" transform="translate(-144.03 -239.88)"/><path class="cls-11" d="M1531.89,556.43c0,1-1.05,1.83-2.36,1.85l-6.9,0a2.18,2.18,0,0,1-2.43-1.75L1519,494c0-1,1-1.84,2.35-1.86l6.92,1a2.15,2.15,0,0,1,2.42,1.77Z" transform="translate(-144.03 -239.88)"/><path class="cls-11" d="M1550.14,557.24a1.93,1.93,0,0,1-2.06,1.78l-6,0a2,2,0,0,1-2.14-1.7l-1.17-60.41a1.93,1.93,0,0,1,2.06-1.78l6.07.95a1.93,1.93,0,0,1,2.13,1.71Z" transform="translate(-144.03 -239.88)"/><path class="cls-11" d="M1568.43,557.08a1.74,1.74,0,0,1-1.83,1.66l-5.35,0a1.75,1.75,0,0,1-1.88-1.6l-1.1-56.49a1.75,1.75,0,0,1,1.83-1.67l5.36.9a1.76,1.76,0,0,1,1.89,1.6Z" transform="translate(-144.03 -239.88)"/><path class="cls-11" d="M1586.64,557.85a1.7,1.7,0,0,1-1.77,1.58l-5.21,0a1.7,1.7,0,0,1-1.84-1.5l-1-53.35a1.7,1.7,0,0,1,1.78-1.59l5.22.83a1.7,1.7,0,0,1,1.83,1.53Z" transform="translate(-144.03 -239.88)"/><path class="cls-11" d="M1311.9,553.15c0,1.48-2.14,2.72-4.85,2.78l-14.16-.43c-2.72,0-4.93-1.1-5-2.57l-1.81-92.43c0-1.48,2.14-2.72,4.86-2.76l14.17,1.35c2.72-.06,4.94,1.1,5,2.57Z" transform="translate(-144.03 -239.88)"/><path class="cls-11" d="M1342.87,553.94c0,1.42-1.95,2.61-4.43,2.66l-12.87-.26c-2.49,0-4.5-1.06-4.53-2.48l-1.72-88.05c0-1.42,2-2.61,4.42-2.66l12.9,1.31c2.48,0,4.5,1.07,4.53,2.48Z" transform="translate(-144.03 -239.88)"/><path class="cls-11" d="M1371.78,554.19c0,1.34-2,2.46-4.43,2.51l-13.07-.41c-2.47.05-4.33-1.81-4.35-3.15l-1.66-84.51c0-1.34,2-2.47,4.43-2.51l12.9,1.22c2.48,0,4.51,1,4.53,2.32Z" transform="translate(-144.03 -239.88)"/><path class="cls-11" d="M1399.25,554.87c0,1.34-1.75,2.45-4,2.49l-11.53.37c-2.23,0-4-1-4.08-2.34l-1.62-83.46c0-1.33,1.76-1.95,4-2l11.56,1.25c2.22,0,4,1.36,4.07,2.69Z" transform="translate(-144.03 -239.88)"/><path class="cls-10" d="M217.49,757.23s0,19.69.22,33.8c.08,6.86,4.17,14.53,10.86,14.76,43.88,1.48,212.9-1.63,275.68-3.64,12.84-.4,20.26-9.16,19.68-18.3-.78-12.24-.5-25.77-.37-35.15C523.56,748.7,217.47,751.68,217.49,757.23Z" transform="translate(-144.03 -239.88)"/><path class="cls-12" d="M160.87,630.39s-.79,87.07.09,132.85c0,0,251.84-.49,376.76-7.3,0,0-.6-76.45-3.29-132.83C534.43,623.11,165.4,625,160.87,630.39Z" transform="translate(-144.03 -239.88)"/><path class="cls-10" d="M232.8,700.53a4.92,4.92,0,0,1-4.82,5l-78.06,1.51a4.91,4.91,0,0,1-5-4.81L144,657.36a4.93,4.93,0,0,1,4.83-5l78-1.52a4.92,4.92,0,0,1,5,4.82Z" transform="translate(-144.03 -239.88)"/><path class="cls-10" d="M505.09,695.21a4.91,4.91,0,0,1-4.83,5l-78.05,1.53a4.93,4.93,0,0,1-5-4.83l-.88-44.87a4.92,4.92,0,0,1,4.83-5l78.06-1.52a4.91,4.91,0,0,1,5,4.81Z" transform="translate(-144.03 -239.88)"/><path class="cls-6" d="M675.1,251.22l408.69,75S1186,339.75,1196.15,428.72l-493.5-61.83Z" transform="translate(-144.03 -239.88)"/><path class="cls-8" d="M668.73,250s307.91,55.82,411.79,75.74c37.39,3.59,108.85,34.65,115.63,103l-493.5-61.83Z" transform="translate(-144.03 -239.88)"/><path class="cls-6" d="M177.82,621.77c0-17,.6-115,15.86-193.7,0,0,25-170.19,58.1-173.3S574.1,239.88,574.1,239.88l87,5.68s11-2.05,19.28,11.31,24,111.45,24,111.45,478.11,52.06,491.8,60.4c0,0,6.06,196.12,4.59,246.57,0,0-19.65,1.61-20.28.4s0-12.51-8.44-12.35-507.23,22.95-507.23,22.95-28.23,2.87-28.67,22.15c0,0-65.88,6.2-66,1.29s-1.28-65.57-1.28-65.57l-36.48.72c-3.59.06-7.12-19.14-7.12-19.14l-364.49,7.11s-4.54-.6-4.21-6.05C157,619.09,177.82,623.45,177.82,621.77Z" transform="translate(-144.03 -239.88)"/><path class="cls-12" d="M718.23,325.54s-29.59-55.31-37.84-68.67-19.28-11.31-19.28-11.31l-87-5.68-16.07.66C503,303.21,478,409.47,478,409.47l41.48,205.32,12.22-.24s4.1,20.8,6.47,20.66c3.71-.22,30.74,8.95,30.74,8.95s1.18,60.65,1.28,65.57c0,2.16,12.81,2.17,27.09,1.5l-1.64-84,131.09-1.88Z" transform="translate(-144.03 -239.88)"/><path class="cls-9" d="M217.76,678.38c.19,9.27-12.19,17-27.63,17.34s-28.13-7-28.3-16.25,12.19-17.05,27.64-17.35S217.58,669.09,217.76,678.38Z" transform="translate(-144.03 -239.88)"/><path class="cls-9" d="M488.68,673.1c.18,9.27-12.2,17-27.64,17.33s-28.13-7-28.3-16.25,12.19-17,27.63-17.34S488.5,663.8,488.68,673.1Z" transform="translate(-144.03 -239.88)"/><path class="cls-11" d="M680.39,256.87c-8.25-13.36-19.28-11.31-19.28-11.31l-87-5.68-32.41,1.34c-36.23,64.11-35.47,258.2-34.22,373.8l24.18-.47s3.9,21.92,7.58,21.44,29.63,8.17,29.63,8.17,1.18,60.65,1.28,65.57c0,2.08,11.92,2.16,25.58,1.57l-6.89-94.58c-11-94.39,26.48-260.2,32.18-283.07S646.49,316,646.49,316l70.86,7.83S688.64,270.23,680.39,256.87Z" transform="translate(-144.03 -239.88)"/><path class="cls-13" d="M570.53,240c-33.09,1.35-287.77,11.83-318.75,14.73-33.14,3.11-58.1,173.3-58.1,173.3-15.18,78.21-15.87,175.58-15.86,193.39l347.84-6.79C522.8,413.87,560.29,274.27,570.53,240Z" transform="translate(-144.03 -239.88)"/><path class="cls-12" d="M201.3,422.06s15.11-102.86,39.17-148.85c4-7.73,11.68-8.69,18.43-9.44,6.14-.68,247.54-9.89,291.19-11.55,4.34-.17,6.18,2.17,5.22,6.45-6,26.89-28,126.49-30,150.23,0,0,.12,5.32-9.1,5.81S201.3,422.06,201.3,422.06Z" transform="translate(-144.03 -239.88)"/><path class="cls-11" d="M211.59,418.17s25.71-117.69,30.58-123.45c5.09-6,10.47-5.31,16.3-6,5.36-.59,243.73-6.39,281.87-7.32,3.33-.08,4.49,2.78,3.39,7.72-5.34,24.23-21.26,97.34-22.93,117.06,0,0,.09,4.6-7.88,5S211.59,418.17,211.59,418.17Z" transform="translate(-144.03 -239.88)"/><path class="cls-14" d="M243.86,303.25,217,414.56,349.4,412s20.39-95.39,27.43-112.75Z" transform="translate(-144.03 -239.88)"/><path class="cls-14" d="M392.26,299,365.67,411.66l149.65-2.92s17.94-96.39,22.82-114.16Z" transform="translate(-144.03 -239.88)"/><path class="cls-6" d="M238,327.45l131.32-2.56c3.18-11.39,5.7-21.26,7.5-25.67l-133,4Z" transform="translate(-144.03 -239.88)"/><path class="cls-6" d="M532.32,320.5c2.64-11.92,4.38-21.06,5.82-25.92L392.26,299l-6,25.47Z" transform="translate(-144.03 -239.88)"/><path class="cls-9" d="M382.66,479.39a5.85,5.85,0,0,1-5.9,5.85l-38.94-.17a5.89,5.89,0,0,1-5.85-5.9l.16-32.9a5.87,5.87,0,0,1,5.89-5.86l38.94.18a5.87,5.87,0,0,1,5.85,5.9Z" transform="translate(-144.03 -239.88)"/><path class="cls-12" d="M511.93,558.16a4.92,4.92,0,0,1-4.88,5L204,565.86a4.91,4.91,0,0,1-5-4.87l-.56-61.47a4.92,4.92,0,0,1,4.87-5l303.07-2.73a4.9,4.9,0,0,1,5,4.86Z" transform="translate(-144.03 -239.88)"/><path class="cls-9" d="M264.82,608.29a4.91,4.91,0,0,1-4.82,5l-58.18,1.14a4.92,4.92,0,0,1-5-4.82l-.45-23.36a4.91,4.91,0,0,1,4.82-5l58.18-1.13a4.92,4.92,0,0,1,5,4.82Z" transform="translate(-144.03 -239.88)"/><path class="cls-9" d="M499.2,603.71a4.92,4.92,0,0,1-4.81,5l-58.19,1.13a4.92,4.92,0,0,1-5-4.82l-.46-23.35a4.93,4.93,0,0,1,4.83-5l58.18-1.13a4.92,4.92,0,0,1,5,4.82Z" transform="translate(-144.03 -239.88)"/><path class="cls-6" d="M233.41,597.21A12.44,12.44,0,1,1,220.72,585,12.44,12.44,0,0,1,233.41,597.21Z" transform="translate(-144.03 -239.88)"/><path class="cls-10" d="M262.56,596.65a12.45,12.45,0,1,1-12.69-12.21A12.45,12.45,0,0,1,262.56,596.65Z" transform="translate(-144.03 -239.88)"/><polygon class="cls-7" points="1055.81 401.09 1057.7 475.35 394.47 556.54 391.52 404.75 424.83 404.27 1055.81 401.09"/><path class="cls-6" d="M464.82,592.7a12.45,12.45,0,1,1-12.69-12.21A12.46,12.46,0,0,1,464.82,592.7Z" transform="translate(-144.03 -239.88)"/><path class="cls-10" d="M494,592.13a12.45,12.45,0,1,1-12.68-12.2A12.44,12.44,0,0,1,494,592.13Z" transform="translate(-144.03 -239.88)"/><path class="cls-15" d="M540.77,644.54c10.89-.25,28.09-.38,28.09-.38s1.18,60.65,1.28,65.57,66-1.29,66-1.29c.44-19.28,28.67-22.15,28.67-22.15s498.83-22.78,507.23-22.95,7.8,11.12,8.44,12.35,20.28-.4,20.28-.4c.35-12.2-.7-34.12-2.51-60.3l-665.32,5.78S533.14,625.3,540.77,644.54Z" transform="translate(-144.03 -239.88)"/><path class="cls-11" d="M626.26,413.5s4.1-73.27,7-80.08,7-6.59,10.68-4.51,6.17,1.41,6.31,8.17.28,77.78.28,77.78S636.05,426.52,626.26,413.5Z" transform="translate(-144.03 -239.88)"/><path class="cls-11" d="M672.79,634.22a2.88,2.88,0,0,1-2.82,2.93h0a2.87,2.87,0,0,1-2.92-2.81L661,325a2.84,2.84,0,0,1,2.79-2.92h0a2.87,2.87,0,0,1,2.93,2.81Z" transform="translate(-144.03 -239.88)"/><path class="cls-11" d="M722.05,638.31a2.87,2.87,0,0,1-2.81,2.93h0a2.87,2.87,0,0,1-2.92-2.82l-6-309.31a2.87,2.87,0,0,1,2.82-2.92h0A2.87,2.87,0,0,1,716,329Z" transform="translate(-144.03 -239.88)"/><path class="cls-13" d="M1155.17,629.47c0,1.12-1.25,2.06-2.84,2.08h0c-1.59,0-2.88-.85-2.9-2l-4.26-218.3c0-1.12,1.25-2,2.82-2.08h0c1.58,0,2.9.84,2.92,2Z" transform="translate(-144.03 -239.88)"/><path class="cls-13" d="M1172.37,629.14c0,1.12-1.25,2.05-2.84,2.08h0c-1.58,0-2.87-.84-2.9-2l-4.26-218.31c0-1.12,1.25-2.05,2.83-2.07h0c1.59,0,2.89.84,2.91,1.95Z" transform="translate(-144.03 -239.88)"/><path class="cls-13" d="M623.63,657a4.92,4.92,0,0,1-4.82,5l-10.65.2a4.91,4.91,0,0,1-5-4.82l-.5-25.41a4.93,4.93,0,0,1,4.83-5l10.65-.2a4.91,4.91,0,0,1,5,4.82Z" transform="translate(-144.03 -239.88)"/><path class="cls-13" d="M887.08,645.06a3.68,3.68,0,0,1-3.62,3.77l-8,.15a3.68,3.68,0,0,1-3.77-3.62l-.37-19.11a3.7,3.7,0,0,1,3.62-3.78l8-.15a3.7,3.7,0,0,1,3.77,3.62Z" transform="translate(-144.03 -239.88)"/><path class="cls-13" d="M976.09,624.88a3.23,3.23,0,0,1-3.16,3.3l-7,.13a3.23,3.23,0,0,1-3.29-3.16l-.32-16.68a3.22,3.22,0,0,1,3.17-3.29l7-.14a3.23,3.23,0,0,1,3.29,3.17Z" transform="translate(-144.03 -239.88)"/><path class="cls-13" d="M1055,640.57c0,1.78-1.07,3.25-2.46,3.27L1047,644c-1.39,0-2.54-1.4-2.58-3.19l-.33-16.68c0-1.78,1.07-3.25,2.46-3.28l5.49-.11c1.39,0,2.55,1.4,2.59,3.19Z" transform="translate(-144.03 -239.88)"/><path class="cls-13" d="M1166.11,650c0,1.78-1.08,3.25-2.48,3.27l-5.48.11c-1.38,0-2.55-1.39-2.58-3.17l-.33-16.68c0-1.8,1.08-3.26,2.47-3.29l5.47-.11c1.4,0,2.56,1.41,2.6,3.19Z" transform="translate(-144.03 -239.88)"/><path class="cls-13" d="M1190.28,643.19c0,1.79-.73,3.26-1.72,3.27l-3.82.08c-1,0-1.81-1.41-1.84-3.2l-.33-16.67c0-1.79.73-3.25,1.71-3.28l3.83-.07c1,0,1.8,1.41,1.83,3.2Z" transform="translate(-144.03 -239.88)"/><polygon class="cls-16" points="72.94 174.21 73.48 174.67 75.78 174.62 174.33 61.14 168.84 61.31 73.77 170.81 72.94 174.21"/><polygon class="cls-16" points="89.67 174.36 124.06 173.7 223.05 59.68 188.31 60.73 89.67 174.36"/><polygon class="cls-16" points="226.45 171.84 228.76 171.78 327.88 56.41 322.39 56.61 223.31 171.91 226.45 171.84"/><polygon class="cls-16" points="242.64 171.44 277.03 170.61 376.38 54.48 341.64 55.7 242.64 171.44"/><path class="cls-9" d="M537.26,720.91l-127.42,1.25-.81,0a6.64,6.64,0,0,0-1.79.23,10.26,10.26,0,0,1-.79-3.69l-.16-18.84c0-.34-.13-8.43-4.74-13.29-4.17-4.38-10.61-4.61-12.48-4.64l-128.74,1.25c-2.26,0-8.51,1.38-12.31,5.29-3.64,3.74-4.36,9-4.45,11.83l-.7,20.41a7.66,7.66,0,0,1-.46,1.77c-1,.81-3.48,1.32-5.31,1.33l-76.52.76q0,5.46.06,10.76l76.56-.75c1.71,0,7.62-.33,11.69-3.7s4.35-9.62,4.35-9.69l.7-20.5c.08-2,.6-3.78,1.38-4.57,1.18-1.21,4.18-2.09,5.11-2.17l128.72-1.26c1.82-.08,4.13.53,5,1.45,1.06,1.11,1.73,4.4,1.74,5.83l.17,18.84c0,1.23.25,7.56,3.82,11.18,3.26,3.3,7.79,3,10.06,2.9l127.48-1.25C537.38,728.34,537.33,724.74,537.26,720.91Z" transform="translate(-144.03 -239.88)"/></svg>